<svg width="58" height="58" viewBox="0 0 58 58" fill="none" xmlns="http://www.w3.org/2000/svg">
<path d="M25.2014 26.4248V26.3973H25.2571C25.295 26.3622 25.3444 26.3423 25.396 26.3413C25.4547 26.3064 25.5213 26.2871 25.5896 26.2853L25.6716 26.2578L25.7274 26.2304H25.7831V26.2029H25.8378C25.8652 26.1744 25.8652 26.1744 25.9767 26.1194C26.3638 25.9524 25.7831 25.0076 25.7547 25.2856H25.396C25.3243 25.3082 25.2491 25.3175 25.174 25.313C25.038 25.3452 24.8992 25.3639 24.7596 25.3691L23.0996 25.6185C22.7409 25.6745 22.3811 25.758 22.0477 25.8129L22.9607 19.6728C23.2648 17.3943 23.5688 15.0883 23.8454 12.7823C23.9843 11.6431 24.0947 10.4763 24.1778 9.33707C24.2883 8.17457 24.343 7.00255 24.3714 5.83582C24.3988 5.25246 24.3988 4.6691 24.3714 4.08573C24.3714 3.78031 24.343 3.50236 24.3156 3.19694C24.3081 2.8974 24.2711 2.59933 24.2052 2.30709C24.1675 1.99657 24.1027 1.68998 24.0116 1.39084C23.964 1.22691 23.8991 1.06856 23.8181 0.918443L23.6792 0.667964C23.6311 0.58901 23.5758 0.514716 23.5141 0.446034C23.4379 0.364184 23.3545 0.289541 23.2648 0.223046C23.1596 0.168091 23.0712 0.117369 22.9334 0.0571305C22.8253 0.0247605 22.7137 0.00594399 22.601 0.00111585C22.4898 -0.00340532 22.3785 0.00582408 22.2696 0.0285942H22.1865L22.1034 0.0571305C22.0761 0.0846078 22.0203 0.0846099 21.993 0.112087C21.9372 0.112087 21.9099 0.140611 21.8541 0.140611C21.8236 0.169596 21.7851 0.188738 21.7436 0.195567L21.6385 0.251582C21.5965 0.271837 21.559 0.300214 21.528 0.335075L21.4228 0.390032L21.3113 0.473512C21.0548 0.645819 20.8143 0.841071 20.5928 1.05688C20.3719 1.27987 20.1499 1.50181 19.9617 1.72374C19.7626 1.94308 19.5778 2.175 19.4083 2.41807C19.2148 2.64106 19.0496 2.89046 18.8561 3.11345C18.5236 3.58585 18.1923 4.08573 17.8872 4.58561C17.5832 5.05801 17.2792 5.55788 16.9752 6.05881C16.3945 7.08604 15.8412 8.08686 15.2921 9.11514C14.7661 10.1424 14.2401 11.1707 13.7436 12.2264C12.7201 14.3105 11.7523 16.422 10.8392 18.5335C9.34543 21.9513 7.93512 25.3965 6.60827 28.8693C6.05495 28.9813 5.52897 29.1197 4.9767 29.2592L3.34408 29.6756C2.79181 29.8141 2.26584 29.9536 1.71252 30.1195C1.44104 30.1773 1.17335 30.2518 0.910935 30.3425L0.490157 30.4481L0.296603 30.5042L0.191409 30.5591H0.108301C0.108449 30.5628 0.107851 30.5664 0.106529 30.5698C0.105207 30.5732 0.103192 30.5763 0.100622 30.5789C0.098052 30.5815 0.0949801 30.5835 0.0915946 30.5848C0.0882091 30.5861 0.0845807 30.5867 0.0809493 30.5866C0.0782813 30.6078 0.0686568 30.6275 0.0535977 30.6426C0.0217764 30.7079 0.0037061 30.7791 0.000512546 30.8517C-0.00268101 30.9243 0.00907559 30.9968 0.0350423 31.0646C0.061009 31.1325 0.100624 31.1942 0.151421 31.246C0.202219 31.2977 0.263102 31.3384 0.33026 31.3655V31.3929H0.357611L0.384963 31.3655H0.413367L0.518562 31.3369L0.712116 31.282L1.12659 31.171L1.92922 30.948C2.48149 30.8096 3.00747 30.6701 3.56079 30.5591C4.08676 30.4207 4.63903 30.2812 5.19236 30.1702C5.52372 30.0867 5.85613 30.0032 6.18749 29.9483L5.66152 31.3929C4.85889 33.5605 4.0836 35.7555 3.36617 37.9452C3.0064 39.056 2.67399 40.1402 2.34263 41.2784C2.17642 41.8343 2.03862 42.3902 1.89977 42.9694C1.84506 43.2473 1.76196 43.5252 1.70621 43.8032L1.6231 44.2481C1.6231 44.3306 1.59575 44.414 1.59575 44.4701C1.57758 44.5023 1.56815 44.5387 1.5684 44.5757V44.6867C1.57315 44.7712 1.60167 44.8526 1.65065 44.9214C1.69962 44.9903 1.76704 45.0437 1.84506 45.0756C1.94783 45.1101 2.05987 45.1034 2.15785 45.0569C2.25582 45.0104 2.33218 44.9278 2.37103 44.8262V44.7977C2.39838 44.7427 2.39839 44.6592 2.42679 44.6032C2.42679 44.5197 2.45414 44.4648 2.45414 44.4087L2.53724 43.9924C2.59299 43.7144 2.64244 43.4365 2.7308 43.1585C2.86861 42.6026 3.00746 42.0478 3.17367 41.4919C3.47768 40.4076 3.83744 39.2969 4.19616 38.2158C4.91568 36.0208 5.68992 33.8543 6.49255 31.7142C6.74081 31.0199 7.01853 30.353 7.26679 29.6862L8.45548 29.4368L10.0871 29.1028L15.0101 28.0745L16.6701 27.7416C17.7484 27.5472 18.855 27.3189 19.9606 27.1583C20.293 27.1022 20.5918 27.0526 20.9284 26.9913L19.9332 33.2149C19.2137 37.7719 18.4952 42.3289 17.8588 46.9134C17.721 48.0759 17.5548 49.2194 17.4443 50.3587C17.3886 50.942 17.3055 51.5212 17.2508 52.1087C17.195 52.6646 17.1456 53.248 17.1119 53.8314C17.0572 54.4147 17.0288 54.9939 17.0015 55.5815C17.0015 55.721 16.9741 55.8594 16.9741 56.0264V56.2769C16.9741 56.3318 17.0015 56.4153 17.0015 56.4988C17.0015 56.6372 17.0288 56.8042 17.0288 56.9437C17.0572 57.0261 17.0572 57.1096 17.0846 57.1931C17.092 57.2877 17.1107 57.381 17.1403 57.4711C17.1542 57.5281 17.1725 57.5839 17.195 57.638L17.2224 57.6655C17.2224 57.693 17.2508 57.7215 17.2508 57.749C17.2781 57.749 17.3055 57.7765 17.3339 57.805C17.3339 57.8325 17.3886 57.86 17.4159 57.8875C17.4717 57.916 17.5275 57.9709 17.5822 57.9709C17.6537 57.9928 17.7284 58.0024 17.8031 57.9995C17.8862 57.971 17.9419 57.9709 17.9693 57.9435C18.0091 57.9223 18.0447 57.894 18.0745 57.86C18.0888 57.8592 18.1024 57.8532 18.1127 57.8431C18.123 57.833 18.1292 57.8194 18.1302 57.805C18.1576 57.7765 18.186 57.7765 18.186 57.749L18.2133 57.7215C18.2407 57.693 18.2407 57.693 18.2407 57.6655L18.3238 57.5271C18.3264 57.5059 18.3361 57.4862 18.3511 57.4711C18.3543 57.4498 18.3643 57.4301 18.3795 57.4151V57.3601L18.4069 57.3326L18.4342 57.2766L18.4616 57.1931C18.5731 56.8877 18.6562 56.6098 18.7382 56.3318C18.8203 56.0539 18.9044 55.7759 18.9875 55.554C19.0318 55.4374 19.0874 55.3255 19.1538 55.22C19.2085 55.1144 19.259 55.0541 19.2916 54.9981C19.3428 54.9615 19.3858 54.9145 19.4181 54.8603C19.4503 54.806 19.471 54.7457 19.4788 54.683C19.4866 54.6203 19.4814 54.5567 19.4634 54.4962C19.4455 54.4356 19.4153 54.3795 19.3747 54.3312C19.2929 54.2371 19.1778 54.1786 19.0539 54.1684C18.9299 54.1581 18.8069 54.1968 18.7109 54.2763C18.6292 54.3519 18.5552 54.4355 18.49 54.5257C18.4281 54.5949 18.3725 54.6696 18.3238 54.7487C18.2407 54.9146 18.186 55.0541 18.1302 55.1926C18.0471 55.387 17.9924 55.554 17.9367 55.721V55.6153C17.964 55.0594 18.0198 54.476 18.0419 53.9244C18.1523 52.7851 18.2628 51.6459 18.4016 50.4791C18.5394 49.3399 18.6783 48.2006 18.8445 47.0614C19.1485 44.7829 19.4756 42.5044 19.8123 40.2259C20.172 37.9484 20.5307 35.6414 20.8642 33.3639C21.224 31.1964 21.5553 29.0014 21.8878 26.8338C22.3569 26.7503 22.7998 26.6668 23.27 26.6119C23.6845 26.5284 24.1 26.4449 24.5418 26.3899C24.5418 26.4174 24.5702 26.4174 24.5976 26.4449C24.6864 26.5087 24.7937 26.5414 24.9029 26.5377C25.012 26.5341 25.1169 26.4944 25.2014 26.4248ZM25.5064 26.2304H25.5338C25.5338 26.2578 25.5064 26.2578 25.4507 26.2578C25.4652 26.242 25.4851 26.2323 25.5064 26.2304ZM21.0809 25.9799L13.1682 27.4531L11.5082 27.786L9.87666 28.12C9.32334 28.2584 8.77107 28.3694 8.21774 28.4803C8.05154 28.5364 7.85798 28.5638 7.66442 28.6198L8.99197 25.2856C9.87666 23.1455 10.7624 21.034 11.7028 18.9225C12.1447 17.8656 12.6422 16.8088 13.1124 15.7826C13.5827 14.7258 14.0813 13.6996 14.6062 12.6439C15.1038 11.6156 15.6297 10.5873 16.1547 9.58754C16.6806 8.5589 17.234 7.55844 17.8146 6.58616C18.1186 6.08629 18.3953 5.58642 18.6993 5.11402C19.0033 4.64162 19.3305 4.16922 19.6671 3.69682L20.1657 3.02997C20.3309 2.80804 20.5244 2.58505 20.6917 2.39588C20.8853 2.17394 21.0515 1.97949 21.245 1.78503C21.4659 1.61805 21.6595 1.4236 21.853 1.28516L21.9361 1.22914L21.9635 1.20166H22.0193L22.1024 1.14565L22.1571 1.11817L22.2402 1.06217C22.2552 1.06385 22.2704 1.06225 22.2847 1.05751C22.299 1.05277 22.3122 1.04499 22.3233 1.03469L22.379 1.00721H22.6273C22.6557 1.00721 22.6557 1.03469 22.683 1.03469L22.7661 1.11817C22.7997 1.1483 22.8278 1.18406 22.8492 1.22385C22.8826 1.26635 22.9105 1.31286 22.9323 1.3623C22.9877 1.46945 23.0338 1.58118 23.0701 1.69626C23.1549 1.93888 23.2107 2.19076 23.2364 2.4466C23.3323 2.9973 23.3879 3.55434 23.4026 4.11321C23.4299 4.6691 23.4299 5.25247 23.4026 5.80413C23.3742 6.94338 23.3195 8.11011 23.2364 9.24936L22.9039 12.6671C22.6557 14.9731 22.3506 17.2516 22.0193 19.5301C21.7173 21.7051 21.4133 23.8409 21.0809 25.9799Z" fill="white"/>
<path d="M57.6654 24.2848H57.5266C57.333 24.2848 57.1679 24.2573 57.0006 24.2573H55.065C54.2077 24.2573 53.3493 24.2848 52.493 24.3133C51.663 24.3408 50.8099 24.419 49.9484 24.4517C49.5329 24.4792 49.1184 24.5077 48.6755 24.5077L47.4037 24.5912C47.193 24.5875 46.9822 24.5966 46.7726 24.6187L46.1414 24.6462C46.1414 24.6737 46.113 24.6737 46.0856 24.6737L46.113 24.6462C46.1687 24.2847 46.2518 23.9518 46.3065 23.5894L46.4181 23.0609L46.5001 22.56L46.7494 21.5328L46.8872 21.0044L46.9703 20.7539C46.9759 20.6684 46.9947 20.5842 47.0261 20.5045L47.1923 20.0046L47.2196 19.8651L47.247 19.7594L47.4132 19.2596C47.4353 19.2166 47.4448 19.1682 47.4405 19.1201L47.4963 19.0144L47.6625 18.542L47.6898 18.5145C47.729 18.393 47.7191 18.2609 47.6622 18.1466C47.6054 18.0324 47.5061 17.9451 47.3858 17.9037C47.3281 17.8783 47.2657 17.8654 47.2027 17.8659C47.1397 17.8663 47.0774 17.88 47.02 17.9061C46.9626 17.9322 46.9113 17.9701 46.8694 18.0174C46.8275 18.0646 46.7959 18.1202 46.7768 18.1806L46.5832 18.709L46.5559 18.8146C46.5285 18.8707 46.5285 18.9256 46.5001 18.9541L46.4181 19.2035L46.3623 19.4815L46.3065 19.621L46.2792 19.7267L46.1414 20.2551C46.0819 20.4275 46.0355 20.6041 46.0025 20.7835L45.8647 21.3119C45.8363 21.4789 45.7816 21.6459 45.7595 21.8403C45.7038 22.0073 45.6764 22.1732 45.6207 22.3402L45.3714 23.397C45.2893 23.731 45.2062 24.0914 45.1505 24.4538L45.0958 24.7593C45.0206 24.7547 44.9453 24.7643 44.8738 24.7878L42.3291 24.9823C42.1356 24.9823 41.9147 25.0097 41.698 25.0097C41.5044 25.0372 41.2772 25.0372 41.0889 25.0657C40.6471 25.0932 40.2316 25.1714 39.8171 25.2042C39.5962 25.2317 39.3742 25.2317 39.1807 25.2602C38.9598 25.2602 38.7389 25.2877 38.5495 25.2877C38.1066 25.3426 37.6922 25.3712 37.2767 25.3934C37.2125 25.3972 37.1498 25.4142 37.0924 25.4432C37.035 25.4723 36.9841 25.5127 36.9427 25.5622C36.9014 25.6116 36.8705 25.669 36.8519 25.7308C36.8334 25.7926 36.8276 25.8576 36.8348 25.9218C36.8386 25.9863 36.8554 26.0493 36.8842 26.1071C36.913 26.1648 36.9533 26.2161 37.0026 26.2576C37.0518 26.2992 37.109 26.3302 37.1706 26.3488C37.2322 26.3673 37.2969 26.3731 37.3608 26.3656L38.6326 26.2272C38.8439 26.2213 39.0547 26.2026 39.2638 26.1712C39.4654 26.1393 39.6688 26.1209 39.8729 26.1162C40.3147 26.0877 40.7302 26.0877 41.1447 26.0327C41.3578 26.0289 41.5705 26.0102 41.7811 25.9767C42.002 25.9492 42.2229 25.9492 42.4122 25.9218L43.6851 25.8097L44.9022 25.7273L44.736 26.5326L44.5698 27.5894C44.4867 27.9509 44.432 28.2838 44.3762 28.6463L44.1827 29.7031L44.0165 30.7599L43.9113 31.2883L43.8839 31.5377L43.845 31.7332C43.8303 31.7427 43.8155 31.7501 43.8019 31.7607C43.8019 31.7882 43.7735 31.7882 43.7461 31.8157L43.6904 31.8442C43.6606 31.8778 43.6249 31.9058 43.5852 31.9266C43.5171 31.9894 43.4431 32.0453 43.3643 32.0936L42.894 32.399C42.59 32.566 42.2629 32.7605 41.9263 32.9274C41.2492 33.2343 40.5448 33.476 39.8224 33.6492C39.4673 33.7322 39.1065 33.788 38.7431 33.8162C38.375 33.8437 38.0055 33.8437 37.6375 33.8162C37.2825 33.8132 36.9293 33.7667 36.5855 33.6778C36.4286 33.6513 36.2782 33.5946 36.1427 33.5108C36.0101 33.4598 35.8881 33.3845 35.7829 33.2889L35.6777 33.1768C35.6474 33.1263 35.6287 33.0696 35.623 33.0109C35.5835 32.8947 35.5738 32.7705 35.5946 32.6495L35.623 32.622V32.5935C35.6849 32.5709 35.7508 32.5615 35.8166 32.566C36.0293 32.5468 36.2403 32.5114 36.4477 32.4603C36.8759 32.3689 37.2867 32.2094 37.6648 31.9879C37.8599 31.8742 38.045 31.7441 38.2181 31.599L38.4664 31.3771C38.5558 31.2769 38.6305 31.1645 38.6884 31.0431C38.7413 30.9578 38.7787 30.8637 38.7988 30.7652C38.7988 30.7377 38.8262 30.7102 38.8262 30.6542V30.5485C38.7988 30.5211 38.7988 30.4925 38.7988 30.4429C38.7715 30.4143 38.7715 30.3594 38.7431 30.3372C38.7365 30.2952 38.7174 30.2561 38.6884 30.2251C38.6884 30.1977 38.661 30.1977 38.661 30.1702C38.6326 30.1702 38.6326 30.1416 38.6053 30.1416C38.6053 30.1142 38.5779 30.1142 38.5779 30.0867C38.5495 30.0867 38.5495 30.0867 38.5222 30.0592C38.501 30.056 38.4814 30.046 38.4664 30.0307C38.3829 29.9765 38.289 29.9405 38.1908 29.925C38.0516 29.9036 37.9108 29.8944 37.77 29.8975C37.6483 29.9004 37.5273 29.9188 37.4103 29.9525C37.3556 29.9525 37.2998 29.981 37.2451 29.981L37.1062 30.036H37.0231L36.94 30.0645L36.8022 30.1195C36.7749 30.1195 36.7465 30.1469 36.7191 30.1469L36.636 30.1755L36.4982 30.2304H36.4709L36.4151 30.259L36.332 30.2864C36.29 30.3203 36.2436 30.3484 36.1942 30.3699L36.0553 30.4534C36.0403 30.4517 36.0252 30.4533 36.0108 30.4581C35.9965 30.4628 35.9833 30.4706 35.9722 30.4809L35.8891 30.5369L35.8344 30.5644L35.7513 30.6193L35.6135 30.7314C35.4346 30.8862 35.2765 31.0638 35.1433 31.2598L35.0318 31.4267L34.9498 31.5652L34.894 31.7322L34.8667 31.7596L34.8425 31.7861L34.7373 31.841L34.6268 31.9245L34.4333 32.0302L33.9904 32.2807C33.7137 32.4476 33.4097 32.6136 33.133 32.7531C32.5522 33.0611 31.9516 33.3302 31.3353 33.5584C31.0469 33.6636 30.7512 33.7473 30.4506 33.8088C30.3755 33.8026 30.3 33.8119 30.2286 33.8363H30.0077C29.8781 33.8419 29.7482 33.8326 29.6206 33.8088L29.4828 33.7528C29.4544 33.7528 29.427 33.7253 29.3997 33.6979C29.3997 33.6693 29.3997 33.6693 29.3713 33.6693V33.6144C29.369 33.5573 29.3786 33.5004 29.3997 33.4474C29.3953 33.3724 29.4045 33.2971 29.427 33.2255C29.4491 33.0654 29.4843 32.9074 29.5322 32.7531L29.588 32.5026C29.588 32.4476 29.6153 32.4191 29.6153 32.3641V32.2532H29.6427V32.1697C29.6427 32.1412 29.6427 32.1137 29.6153 32.1137V32.0302C29.5954 31.9489 29.5577 31.8731 29.5049 31.8083C29.4646 31.7393 29.4073 31.6818 29.3387 31.6413C29.2891 31.6201 29.2427 31.592 29.2009 31.5578C29.1725 31.5578 29.1451 31.5303 29.1178 31.5303H29.062C28.9907 31.5077 28.9158 31.4984 28.8411 31.5028C28.7854 31.4743 28.7307 31.5028 28.6749 31.5028C28.4682 31.5084 28.2634 31.544 28.0669 31.6085H28.0385C28.0111 31.636 28.0111 31.636 27.9838 31.636H27.8786L27.8228 31.6635H27.7124C27.5728 31.6587 27.434 31.6403 27.2979 31.6085C27.1481 31.5941 26.9999 31.5662 26.855 31.525H26.8277C26.8484 31.4848 26.8766 31.4489 26.9108 31.4194L26.9381 31.3919V31.3633H26.9655C26.9655 31.3359 26.9928 31.3084 27.0212 31.2798C27.0615 31.199 27.0967 31.1157 27.1264 31.0304V30.9248L27.1538 30.8687V30.7631C27.1393 30.6669 27.1113 30.5734 27.0707 30.4851C27.0429 30.3786 26.9857 30.2822 26.9055 30.2072C26.8366 30.145 26.7623 30.0891 26.6836 30.0402L26.4353 29.9567C26.3796 29.9567 26.2965 29.9292 26.2134 29.9292C26.1587 29.9292 26.0755 29.9567 25.9924 29.9567C25.9468 29.9691 25.9004 29.9786 25.8536 29.9852C25.8536 30.0127 25.8262 30.0127 25.7989 30.0127L25.7431 30.0687C25.7158 30.0687 25.6884 30.0962 25.66 30.0962C25.6327 30.1237 25.6327 30.1237 25.6053 30.1237L25.578 30.1512C25.5297 30.2056 25.4737 30.2526 25.4118 30.2907C25.3218 30.4102 25.2476 30.541 25.1909 30.6796C25.145 30.8231 25.1261 30.974 25.1351 31.1245C25.1518 31.2801 25.1986 31.4308 25.2729 31.5684V31.5969L25.1078 31.7026L25.0794 31.7301C24.9809 31.8078 24.9169 31.9215 24.9013 32.0463C24.8858 32.1712 24.9199 32.2972 24.9963 32.3969C25.1351 32.6189 25.4391 32.6474 25.66 32.5026L25.882 32.3367L26.0482 32.2247C26.2276 32.3021 26.4122 32.3671 26.6005 32.4191C26.772 32.4789 26.9479 32.5255 27.1264 32.5586C27.3185 32.5905 27.5125 32.6089 27.7071 32.6136H28.0111L28.0942 32.5861H28.1773L28.2604 32.5586H28.3151L28.3435 32.5311C28.4204 32.5289 28.4958 32.5098 28.5644 32.4751V32.5026L28.454 33.031C28.4224 33.1205 28.4036 33.2141 28.3982 33.309C28.3982 33.4199 28.3709 33.5309 28.3709 33.6418C28.3709 33.6979 28.3982 33.7475 28.3982 33.8363V33.9198L28.4266 33.9473V34.0033C28.454 34.0308 28.454 34.0593 28.4813 34.0868V34.1143L28.5087 34.1417C28.5087 34.1703 28.5087 34.1703 28.5371 34.1977L28.5644 34.2537C28.5643 34.2574 28.5649 34.261 28.5662 34.2644C28.5676 34.2678 28.5696 34.2709 28.5721 34.2735C28.5747 34.2761 28.5778 34.2781 28.5812 34.2794C28.5845 34.2808 28.5882 34.2814 28.5918 34.2812C28.63 34.3432 28.6768 34.3994 28.7307 34.4482C28.8403 34.5378 28.9613 34.6125 29.0904 34.6701C29.1966 34.7176 29.3078 34.753 29.4218 34.7758C29.6314 34.7985 29.8422 34.8077 30.053 34.8033C30.0983 34.7915 30.1443 34.7823 30.1908 34.7758C30.2387 34.7801 30.2869 34.7706 30.3296 34.7483L30.6063 34.7198C30.6477 34.6951 30.6964 34.6854 30.7441 34.6923L30.8493 34.6374C30.944 34.6347 31.0376 34.6158 31.1259 34.5814L31.3752 34.4979L31.6235 34.4144C32.2738 34.1708 32.9107 33.8928 33.5317 33.5816C33.8368 33.4421 34.1408 33.2751 34.4448 33.1092L34.6079 33.0162C34.6183 33.1136 34.6377 33.2098 34.6657 33.3037C34.692 33.4438 34.7484 33.5765 34.8309 33.6926C34.9073 33.8084 34.9906 33.9196 35.0802 34.0255C35.2695 34.1849 35.473 34.3264 35.6882 34.4482C35.8929 34.5422 36.106 34.6165 36.3246 34.6701C36.5331 34.7162 36.7438 34.7515 36.9558 34.7758C37.1648 34.8079 37.3756 34.8266 37.587 34.8318C37.9751 34.8318 38.3896 34.8033 38.8041 34.7758C39.1912 34.7198 39.6067 34.6374 39.9938 34.5539C40.7845 34.3782 41.5541 34.1174 42.2892 33.7761C42.6489 33.6091 43.0087 33.4146 43.3411 33.2202C43.4389 33.1631 43.5305 33.1145 43.6178 33.0648C43.521 33.7042 43.441 34.3626 43.3401 34.9978L42.7867 39.225C42.6763 39.9468 42.5658 40.6412 42.4827 41.3387C42.3996 42.0605 42.2892 42.7559 42.2061 43.4777C42.123 44.172 42.0409 44.8949 41.9578 45.5913L41.7085 47.705L41.6527 48.2334L41.5707 48.7618L41.4655 49.8165L41.4381 50.0659L41.4108 50.2054C41.4136 50.2427 41.404 50.2799 41.3834 50.3111V50.4495L41.355 50.533V50.7275C41.3531 50.7427 41.3546 50.7581 41.3595 50.7726C41.3644 50.787 41.3726 50.8002 41.3834 50.811C41.3834 50.8395 41.3834 50.867 41.4655 50.9779C41.577 51.1449 41.9357 51.0836 41.9641 51.034C42.0188 50.978 42.0472 50.9779 42.0472 50.9505L42.1019 50.8945C42.1122 50.8833 42.1199 50.8701 42.1246 50.8557C42.1294 50.8413 42.1309 50.826 42.1293 50.811C42.1401 50.8002 42.1483 50.787 42.1532 50.7726C42.1581 50.7581 42.1597 50.7427 42.1577 50.7275L42.185 50.6725C42.2335 50.5947 42.2707 50.5104 42.2955 50.4221L42.3786 50.1726L42.4617 49.9222C42.489 49.8947 42.489 49.8662 42.5164 49.8387V49.8112C42.5781 49.7508 42.6173 49.6709 42.6274 49.5849C42.6376 49.499 42.6181 49.4121 42.5721 49.3388C42.5081 49.2587 42.421 49.2004 42.3228 49.1718L42.3512 48.8389L42.4343 48.3105L42.489 47.7821L42.6552 46.7253L42.793 45.6685L43.0981 43.5548L43.6504 39.3275C43.7619 38.6057 43.8439 37.9104 43.9554 37.2139L44.3142 35.1003L44.6466 32.9866L44.8128 31.9583C44.8675 31.5969 44.8959 31.2355 44.9506 30.9015C45.0558 30.1786 45.1999 29.4843 45.3104 28.7879C45.3651 28.4264 45.4156 28.0935 45.5039 27.731L45.587 27.2026L45.6975 26.7028L45.7806 26.1744L45.8353 25.8964L45.891 25.6459C46.0022 25.6505 46.1135 25.6412 46.2224 25.6185L47.4952 25.535L49.3761 25.368C49.597 25.3405 49.8179 25.3405 50.0073 25.312C50.8646 25.257 51.6904 25.2295 52.5519 25.1735C53.4093 25.1461 54.2351 25.09 55.0966 25.0678C55.4006 25.0404 55.7278 25.0404 56.0644 25.0118C56.0699 25.0711 56.089 25.1282 56.1201 25.1788C56.1861 25.2596 56.2813 25.3109 56.3848 25.3214C56.4883 25.3319 56.5917 25.3007 56.6724 25.2348L56.8386 25.1228C56.9217 25.0953 57.0048 25.0953 57.0595 25.0678C57.1426 25.0678 57.2541 25.0404 57.3362 25.0404H57.6128C57.6625 25.0448 57.7125 25.0387 57.7596 25.0225C57.8068 25.0063 57.85 24.9803 57.8865 24.9462C57.923 24.9122 57.952 24.8708 57.9715 24.8247C57.991 24.7787 58.0007 24.729 58 24.6789C58.001 24.5837 57.9677 24.4914 57.9062 24.4189C57.8447 24.3464 57.7592 24.2988 57.6654 24.2848ZM36.2058 31.4278L36.2889 31.3729L36.3436 31.3168L36.3993 31.2894L36.4267 31.2608C36.4478 31.2582 36.4674 31.2485 36.4824 31.2334L36.5929 31.1784C36.6202 31.1499 36.676 31.1499 36.6981 31.1224L36.7538 31.0949H36.7812L36.8085 31.0664L36.9474 31.0389L37.0021 31.0114C37.0305 30.9839 37.0305 30.9839 37.0578 30.9839L37.1957 30.9554L37.3072 30.9005L37.445 30.8719L37.5502 30.8444C37.4187 30.9551 37.2802 31.0571 37.1357 31.1499C36.996 31.2315 36.8474 31.2967 36.6928 31.3443C36.5313 31.4123 36.365 31.4681 36.1953 31.5113C36.1581 31.5084 36.1211 31.5181 36.0901 31.5388C36.1248 31.5092 36.1521 31.4532 36.2058 31.4278Z" fill="white"/>
<path d="M56.1748 31.7597C56.1748 31.7871 56.1475 31.7871 56.1191 31.8146L56.0644 31.8431C56.0342 31.8764 55.9986 31.9042 55.9592 31.9256C55.8905 31.9881 55.8162 32.044 55.7372 32.0926L55.267 32.398C54.963 32.565 54.6358 32.7594 54.2992 32.9264C53.6223 33.2334 52.9178 33.4751 52.1953 33.6482C51.8406 33.731 51.4802 33.7869 51.1171 33.8152C50.7487 33.8427 50.3788 33.8427 50.0104 33.8152C49.6555 33.8121 49.3022 33.7656 48.9585 33.6767C48.8016 33.6502 48.6512 33.5935 48.5156 33.5097C48.3833 33.459 48.2616 33.3837 48.1569 33.2878L48.0454 33.1758C48.0144 33.1265 47.9947 33.0709 47.9876 33.013C47.9485 32.8968 47.9391 32.7725 47.9602 32.6516L47.9876 32.6241V32.5956C48.0495 32.573 48.1154 32.5637 48.1811 32.5681C48.3938 32.5487 48.6048 32.5134 48.8123 32.4624C49.24 32.3708 49.6505 32.2114 50.0283 31.99C50.2234 31.8763 50.4085 31.7462 50.5816 31.6011L50.831 31.3792C50.9204 31.2793 50.9948 31.1668 51.0519 31.0452C51.1035 30.9598 51.1392 30.8656 51.1571 30.7673C51.1571 30.7398 51.1855 30.7123 51.1855 30.6563V30.5506C51.1571 30.5232 51.1571 30.4946 51.1571 30.445C51.1297 30.4164 51.1297 30.3615 51.1024 30.3393C51.0955 30.2971 51.076 30.2581 51.0466 30.2273C51.0466 30.1998 51.0193 30.1998 51.0193 30.1723C50.9919 30.1723 50.9919 30.1438 50.9635 30.1438C50.9635 30.1163 50.9362 30.1163 50.9362 30.0888C50.9088 30.0888 50.9088 30.0888 50.8804 30.0613C50.8595 30.0582 50.8403 30.0482 50.8257 30.0328C50.7419 29.9784 50.6476 29.9424 50.549 29.9271C50.4098 29.9057 50.269 29.8965 50.1283 29.8997C50.0068 29.9024 49.8863 29.9209 49.7695 29.9546C49.7138 29.9546 49.6591 29.9831 49.6033 29.9831L49.4655 30.0381H49.3824L49.2993 30.0666L49.1605 30.1216C49.1331 30.1216 49.1058 30.1491 49.0774 30.1491L48.9953 30.1776L48.8565 30.2325H48.8291L48.7733 30.2611L48.6903 30.2886C48.6482 30.3224 48.6019 30.3505 48.5524 30.372L48.4136 30.4555C48.3988 30.454 48.3838 30.4557 48.3696 30.4604C48.3555 30.4651 48.3425 30.4729 48.3315 30.483L48.2484 30.539L48.1927 30.5665L48.1096 30.6215L47.9718 30.7335C47.7931 30.8886 47.635 31.0662 47.5016 31.2619L47.3964 31.4289L47.3133 31.5673L47.2575 31.7343L47.2301 31.7618C47.132 31.8573 47.0727 31.9862 47.0639 32.1232V32.3177L47.0366 32.3462C47.0381 32.3611 47.0365 32.3761 47.0317 32.3904C47.027 32.4046 47.0194 32.4176 47.0092 32.4286V32.5406C46.9496 32.7978 46.9591 33.0662 47.0366 33.3185C47.0628 33.4588 47.1196 33.5916 47.2028 33.7074C47.2789 33.8232 47.3618 33.9343 47.4511 34.0403C47.6407 34.1997 47.8446 34.3412 48.0601 34.463C48.2631 34.5569 48.4744 34.6312 48.6913 34.6849C48.8998 34.7309 49.1104 34.7662 49.3225 34.7906C49.5332 34.8229 49.7458 34.8417 49.9589 34.8466C50.346 34.8466 50.7605 34.8181 51.176 34.7906C51.5631 34.7346 51.9776 34.6522 52.3647 34.5687C53.1554 34.3931 53.925 34.1323 54.66 33.7909C55.0198 33.6239 55.3796 33.4294 55.712 33.235C55.9055 33.1293 56.0717 33.0405 56.2379 32.9296L56.4862 32.7626L56.6251 32.6791L56.6798 32.6231C56.7082 32.6231 56.7355 32.5956 56.7629 32.5681H56.7913C56.8851 32.4802 56.9428 32.3602 56.9529 32.2316C56.963 32.1031 56.9249 31.9754 56.846 31.8738C56.7713 31.7703 56.6591 31.7003 56.5336 31.679C56.4081 31.6576 56.2793 31.6866 56.1748 31.7597ZM48.6008 31.4257L48.6839 31.3707L48.7397 31.3147L48.7944 31.2873L48.8228 31.2587C48.8435 31.2558 48.8627 31.2462 48.8775 31.2312L48.988 31.1763C49.0164 31.1478 49.0711 31.1477 49.0931 31.1203L49.1489 31.0928H49.1762L49.2047 31.0643L49.3425 31.0368L49.3982 31.0093C49.4256 30.9818 49.4256 30.9818 49.4529 30.9818L49.5918 30.9533L49.697 30.8983L49.8348 30.8698L49.94 30.8423C49.8087 30.9532 49.6702 31.0552 49.5255 31.1477C49.3859 31.2296 49.2372 31.2948 49.0826 31.3422C48.9212 31.4103 48.7548 31.4661 48.5851 31.5092C48.5479 31.5063 48.5109 31.516 48.4799 31.5367C48.5135 31.5092 48.5419 31.4532 48.5966 31.4278L48.6008 31.4257Z" fill="white"/>
</svg>
